<svg width="153" height="38" viewBox="0 0 153 38" fill="none" xmlns="http://www.w3.org/2000/svg">
<g clip-path="url(#clip0_16528_16491)">
<path d="M58.6779 30.7157L67.5821 11.0176H62.2369L56.0574 24.8491L49.876 11.0176H44.5308L53.435 30.7157V30.7176L58.6779 30.7176V30.7157Z" fill="#ffffff"/>
<path d="M153 11.0176L130.565 10.9829V22.3594L121.359 10.9829L121.347 10.9887L121.346 10.9829H116.923V30.683H121.859V19.3065L131.065 30.683H135.5V15.4764H140.685V30.7177H146.05V15.4764L151.353 15.4764L153 11.0176Z" fill="#ffffff"/>
<path d="M108.765 11.0176L87.5903 11.0176C84.3847 11.0388 81.4533 12.5431 81.4533 16.5255C81.4533 22.1028 90.1992 22.4442 90.1992 24.7989C90.1992 25.7343 89.5986 26.2723 88.4303 26.2723H82.5714L75.7894 11.0176H70.5426L61.7852 30.7176H67.1748L68.459 27.5355H72.4525L73.8448 24.0217H69.8764L73.165 15.8736L79.1572 30.7176H88.9073C92.6459 30.7003 95.5792 28.7814 95.5792 25.0612C95.5792 19.4607 86.5147 18.9246 86.5147 16.4889C86.5147 15.2681 87.6501 15.0849 88.3627 15.0849L98.2557 15.0849V30.7157H103.62V15.0849H108.763V30.7157H114.133V11.0176L108.763 11.0176H108.765Z" fill="#ffffff"/>
<path d="M38.2645 20.5042C37.7953 17.783 35.057 10.5529 28.331 8.53369C28.8775 10.1652 29.3468 12.0301 29.6596 14.2094C30.9901 23.7711 21.8387 28.5134 18.6331 29.2906C17.2254 29.6782 15.8176 29.9116 14.2534 29.9116C17.5382 33.9538 22.3872 38.1522 27.4717 37.996C33.8076 37.7627 35.7638 33.5642 36.7795 31.0764C38.5001 26.878 38.7338 23.7692 38.2665 20.5042H38.2645Z" fill="#C1C3BD"/>
<path d="M9.24631 15.9179C10.9669 11.3299 15.1902 8.45445 24.2644 8.06681C25.7513 7.98774 27.1571 8.2211 28.3332 8.53352C26.6106 3.47881 23.7951 0.99292 20.2747 0.213789C16.7544 -0.642484 13.5488 1.30342 12.2974 2.00348C8.93347 4.02266 -1.07728 12.5738 0.0948906 20.504C0.956155 26.7235 5.33586 28.2008 7.99497 28.978C10.3412 29.6781 12.3747 29.9886 14.2517 29.9114C12.2955 27.5798 10.8877 25.2463 10.2621 23.9252C9.63639 22.6813 8.14945 18.8724 9.24438 15.9179H9.24631Z" fill="#A5625B"/>
<path d="M29.6595 14.2077C29.3486 12.0304 28.8774 10.1655 28.3309 8.53203C27.1568 8.21961 25.7491 7.98625 24.2621 8.06532C15.1899 8.45296 10.9647 11.3284 9.24408 15.9164C8.14916 18.8709 9.63609 22.6798 10.2618 23.9237C10.8874 25.2448 12.2952 27.5783 14.2514 29.9099C15.8156 29.9099 17.2233 29.6766 18.6311 29.2889C21.8386 28.5117 30.9881 23.7694 29.6576 14.2077H29.6595Z" fill="#874641"/>
</g>
<defs>
<clipPath id="clip0_16528_16491">
<rect width="153" height="38" fill="white"/>
</clipPath>
</defs>
</svg>
